<?xml version="1.0"?>
<svg width="320" height="360" xmlns="http://www.w3.org/2000/svg" xmlns:svg="http://www.w3.org/2000/svg">
 <g class="layer">
  <title>Layer 1</title>
  <g id="svg_15">
   <path d="m20.96,227.22l3.73,4.66l-1.87,-6.06c-0.46,-2.79 -3.72,0.47 -1.86,1.4m4.19,-2.79c1.4,2.32 2.8,4.65 2.8,6.98c0,3.26 2.79,4.66 5.12,5.59c-3.26,-3.72 -5.12,-13.97 -7.92,-12.57m178.87,-197.5c7.92,0 15.37,-0.93 23.75,0.93c20.5,5.12 37.73,15.37 49.38,29.81l32.6,52.17c1.4,13.04 4.19,27.48 3.73,43.32c3.26,0 2.79,-4.66 6.52,-5.59c-3.73,9.31 -5.59,20.96 -6.52,34.47c-2.33,-7.46 0,-18.63 0.46,-24.69c-3.26,5.12 -5.12,1.4 -5.12,-0.93c0.47,-3.73 -1.4,-3.26 -2.79,-4.66c-5.13,-4.66 -8.39,-9.78 -12.11,-17.7c2.32,-6.05 2.79,-14.9 -4.66,-19.56c-2.33,-1.4 -5.13,-3.73 -6.52,-7.45c-1.87,-5.13 -5.13,-11.18 -4.2,-19.1c0.47,-2.33 -6.98,5.12 -11.18,1.86c-18.16,-12.57 -36.33,-27.01 -58.22,-39.13c-11.64,0 -20.03,-4.19 -24.22,-9.31c-3.73,-4.66 -0.93,-10.71 4.66,-11.18c3.26,0 6.98,-0.93 9.78,0.93c0.47,-1.86 2.33,-4.19 4.66,-4.19m-46.12,-10.72l0.94,0.47c4.65,0.93 6.98,7.45 12.11,5.12c0,3.27 0.46,6.53 -0.47,8.86c-1.4,3.72 -5.59,3.72 -8.85,3.72c-31.21,-1.86 -49.37,11.18 -68.47,22.36c-5.13,3.26 -10.71,5.59 -14.91,9.78c-20.03,18.63 -41.92,35.87 -47.04,70.34l-4.19,38.19c-0.47,4.19 -5.13,8.39 -4.2,13.51l3.26,22.82c-3.26,-3.26 -5.12,0.93 -4.19,2.8c0.47,1.39 2.33,6.05 5.13,1.86c3.72,6.99 7.45,20.5 12.57,26.55c15.84,18.63 36.33,35.4 53.1,52.17c4.19,-0.93 7.46,-0.93 8.39,-3.73c1.39,2.8 -1.4,5.59 -3.73,6.06c7.45,4.66 15.84,8.85 27.02,9.78c14.44,0.93 27.94,3.26 40.52,6.52c6.52,-1.86 13.04,-2.79 20.03,-3.26c2.33,0 3.73,-3.73 6.52,-4.66l0.47,-4.66c2.79,4.2 2.33,-1.39 0.46,-4.19c3.26,2.8 4.19,5.13 5.59,6.99c0,-1.4 3.73,-6.52 3.73,-0.47l0.93,-6.05c1.4,-0.93 1.86,5.12 3.26,0.93c1.4,-4.19 4.19,-0.93 6.99,-2.33c-0.93,1.86 -0.47,5.59 2.79,3.26l3.73,-3.26c2.33,5.59 6.05,3.26 7.92,2.33c20.49,-13.04 40.99,-28.41 60.55,-43.78l-0.47,6.05l2.33,-7.45c2.33,2.33 4.2,0.46 5.13,-0.93c2.79,-4.66 6.52,-9.32 12.57,-13.51c-7.45,20.03 -16.3,35.86 -27.48,48.91l-4.66,5.59c0,3.26 -0.93,7.45 -4.65,7.91c-1.87,0.47 -5.59,-0.93 -8.39,1.87c-1.4,1.86 3.26,5.59 -0.46,2.79c-3.27,-2.33 -6.53,0 -10.25,0.93c-2.8,0.94 1.86,3.73 2.79,5.59c0.93,1.87 1.87,3.73 1.4,6.06l-5.12,-5.59c-6.06,3.26 -9.79,9.32 -14.91,13.97c-2.33,1.87 -1.4,5.13 -1.4,7.92c-3.26,0 -6.98,-0.93 -8.85,0.93c-1.39,1.87 -0.93,4.66 -0.93,7.46c-4.66,-0.47 -5.12,-7.46 -9.31,-6.06c-4.2,0.93 -8.85,1.4 -12.58,3.73c2.79,5.59 -4.66,2.33 -3.73,3.26c-6.98,-4.19 -13.04,-7.46 -20.49,-4.66c-15.84,-5.12 -35.4,-2.8 -49.84,-0.93c0,-2.33 0.46,-4.66 -0.47,-5.13c-0.93,2.33 -3.72,1.4 -3.26,1.4c-8.85,-6.05 -17.7,-9.78 -27.01,-14.9c-8.39,0.93 -16.31,-3.26 -18.64,-5.59c-6.52,-6.06 -13.97,-2.8 -20.02,-4.2c-13.05,-3.26 -17.7,-16.76 -19.1,-26.08c-0.93,-4.66 -4.66,-6.52 -6.06,-6.06c-6.05,-19.56 -15.37,-37.26 -22.82,-55.42c-1.86,-4.66 -1.4,-9.32 -1.4,-14.44c2.33,0.93 4.66,0.46 4.19,-2.8c-2.33,-15.37 -7.91,-27.01 -13.97,-38.19c3.26,-15.84 3.73,-34.47 11.18,-48.45c6.52,-12.57 18.63,-19.09 27.01,-29.81c2.8,-3.72 2.8,-8.85 5.59,-12.11c9.32,-9.31 18.64,-19.1 28.88,-27.48c4.66,-3.73 10.25,0 17.24,-1.4c2.33,-8.38 11.64,-15.83 20.49,-13.5c3.73,0.93 11.18,-8.85 13.51,-9.79c3.73,-1.39 1.86,3.73 1.86,6.99c8.85,-6.99 20.96,-10.71 32.14,-14.91" data-fill-palette-color="tertiary" fill="#804dee" fill-rule="nonzero" id="svg_16" stroke-dashoffset="0" stroke-miterlimit="10" xmlns="http://www.w3.org/2000/svg"/>
  </g>
  <text fill="#804dee" fill-opacity="0.8" font-family="Monospace" font-size="24" id="svg_25" stroke="#000000" stroke-width="0" text-anchor="middle" transform="matrix(1 0 0 1 0 0) matrix(8.79474 0 0 7.96798 -1004.41 -601.398)" x="132" xml:space="preserve" y="105.95">C</text>
  <!-- <text fill="#000000" fill-opacity="0.79" font-family="Serif" font-size="24" id="svg_26" stroke="#000000" stroke-width="0" text-anchor="middle" transform="matrix(1 0 0 1 0 0) matrix(1 0 0 1 0 0)" x="138" xml:space="preserve" y="121.5"/>
  <text fill="#000000" fill-opacity="0.79" font-family="Serif" font-size="24" id="svg_27" stroke="#000000" stroke-width="0" text-anchor="middle" x="170" xml:space="preserve" y="120.5"/>
  <text fill="#000000" fill-opacity="0.79" font-family="Serif" font-size="24" id="svg_28" stroke="#000000" stroke-width="0" text-anchor="middle" x="164" xml:space="preserve" y="120.5"/>
  <text fill="#000000" fill-opacity="0.79" font-family="Monospace" font-size="24" id="svg_29" stroke="#000000" stroke-width="0" text-anchor="middle" x="-174" xml:space="preserve" y="-263.5"/>
  <text fill="#000000" fill-opacity="0.79" font-family="Monospace" font-size="24" id="svg_30" stroke="#000000" stroke-width="0" text-anchor="middle" x="-140" xml:space="preserve" y="-263.5"/>
  <text fill="#000000" fill-opacity="0.85" font-family="Monospace" font-size="24" id="svg_31" stroke="#000000" stroke-width="0" text-anchor="middle" x="154" xml:space="preserve" y="498.5"/>
  <text fill="#000000" fill-opacity="0.8" font-family="Monospace" font-size="24" id="svg_32" stroke="#000000" stroke-width="0" text-anchor="middle" x="-39" xml:space="preserve" y="541.5"/>
  <text fill="#000000" fill-opacity="0.8" font-family="Monospace" font-size="24" id="svg_33" stroke="#000000" stroke-width="0" text-anchor="middle" x="-125" xml:space="preserve" y="485.5"/> -->
 </g>
</svg>